<?xml version="1.0" standalone="no"?>
<!DOCTYPE svg PUBLIC "-//W3C//DTD SVG 20010904//EN"
 "http://www.w3.org/TR/2001/REC-SVG-20010904/DTD/svg10.dtd">
<svg version="1.0" xmlns="http://www.w3.org/2000/svg"
 width="557.000000pt" height="557.000000pt" viewBox="0 0 557.000000 557.000000"
 preserveAspectRatio="xMidYMid meet">
<metadata>
Created by potrace 1.11, written by Peter Selinger 2001-2013
</metadata>
<g transform="translate(0.000000,557.000000) scale(0.100000,-0.100000)"
fill="#000000" stroke="none">
<path d="M2427 3753 c-4 -3 -7 -140 -7 -304 0 -261 2 -298 16 -303 9 -3 114
-6 235 -6 l219 0 0 -119 c0 -66 4 -122 9 -125 5 -3 57 49 116 117 l108 122 81
5 81 5 0 305 0 305 -426 3 c-234 1 -429 -1 -432 -5z"/>
<path d="M2237 3493 c-4 -3 -7 -131 -7 -284 0 -315 -8 -289 93 -289 l62 -1 95
-109 c52 -60 101 -109 108 -110 9 0 12 28 12 110 l0 110 105 0 105 0 0 75 0
75 -198 0 c-275 0 -272 -3 -272 265 l0 165 -48 0 c-27 0 -52 -3 -55 -7z"/>
<path d="M1081 2551 c-15 -9 -175 -885 -166 -909 3 -10 64 -12 277 -10 l273 3
16 80 c9 44 14 86 11 93 -3 9 -47 12 -173 12 -93 0 -169 3 -169 8 0 4 28 166
62 360 53 301 60 355 47 363 -18 11 -160 12 -178 0z"/>
<path d="M1813 2306 c-135 -44 -197 -132 -228 -325 -26 -157 -13 -229 52 -295
44 -46 106 -68 187 -69 136 -1 246 54 298 149 30 55 68 234 68 320 0 93 -42
164 -125 207 -51 26 -189 34 -252 13z m157 -176 c24 -24 26 -66 5 -175 -20
-105 -32 -133 -66 -150 -41 -22 -102 -19 -124 5 -20 22 -18 77 6 210 16 85 56
130 118 130 28 0 48 -7 61 -20z"/>
<path d="M2515 2311 c-83 -22 -169 -93 -199 -165 -8 -19 -24 -92 -37 -162 -19
-110 -20 -137 -11 -183 26 -121 111 -184 250 -184 85 0 177 22 213 52 l23 18
-28 67 c-16 36 -32 69 -37 72 -5 2 -25 -4 -46 -14 -56 -28 -99 -34 -138 -18
-47 20 -52 57 -26 193 18 95 24 111 51 136 25 22 40 27 83 27 28 0 65 -7 81
-15 15 -8 31 -15 35 -15 11 0 91 108 91 124 0 9 -23 28 -52 43 -43 22 -69 27
-138 29 -47 2 -98 0 -115 -5z"/>
<path d="M3027 2304 c-88 -21 -120 -41 -113 -69 11 -43 45 -115 55 -115 5 0
37 7 71 16 119 30 201 -2 186 -73 l-7 -28 -112 0 c-104 0 -116 -2 -172 -30
-68 -34 -98 -72 -114 -143 -31 -149 73 -246 264 -246 94 0 229 28 254 53 18
18 81 350 81 427 0 92 -48 170 -125 205 -49 23 -182 24 -268 3z m144 -403 c25
-6 25 -7 15 -61 l-11 -55 -58 -3 c-87 -5 -123 25 -101 83 14 35 89 52 155 36z"/>
<path d="M3705 2306 c-27 -7 -66 -20 -86 -28 -34 -15 -37 -20 -48 -79 -62
-351 -92 -541 -87 -554 4 -12 24 -15 91 -15 80 0 86 2 94 23 5 12 25 121 46
242 26 154 42 224 53 233 10 7 46 12 93 12 l76 0 12 57 c19 94 16 110 -20 117
-50 10 -170 5 -224 -8z"/>
<path d="M4045 2288 c-2 -7 -18 -93 -35 -191 -48 -268 -35 -349 65 -412 42
-26 58 -30 119 -30 39 0 81 4 93 8 25 9 25 8 1 -56 -23 -61 -129 -79 -226 -37
-29 12 -54 21 -56 19 -1 -2 -23 -30 -49 -62 -56 -71 -53 -83 30 -123 82 -38
204 -45 300 -16 58 18 78 30 115 70 27 29 54 72 68 108 17 45 140 682 140 726
0 5 -44 7 -97 6 l-98 -3 -40 -229 c-45 -254 -40 -244 -122 -245 -49 -1 -83 25
-83 62 0 13 16 109 35 213 19 104 35 192 35 197 0 13 -190 8 -195 -5z"/>
<path d="M2749 1105 c-14 -115 -13 -125 2 -125 12 0 18 13 22 52 5 36 14 60
31 76 37 38 49 21 44 -60 -5 -60 -3 -69 11 -66 20 4 36 112 21 146 -11 25 -45
29 -76 8 -19 -14 -20 -13 -14 40 5 45 4 54 -10 54 -13 0 -19 -23 -31 -125z"/>
<path d="M3466 1198 c-7 -41 -26 -198 -26 -209 0 -5 10 -9 23 -9 12 -1 35 -1
52 -1 55 -1 103 90 76 147 -13 29 -55 33 -84 7 -19 -18 -20 -17 -13 40 6 47 5
57 -8 57 -9 0 -17 -12 -20 -32z m95 -92 c17 -36 -16 -101 -51 -101 -40 0 -40
65 0 105 26 26 38 25 51 -4z"/>
<path d="M4036 1208 c-7 -32 -26 -187 -26 -210 0 -10 6 -18 14 -18 9 0 17 17
21 52 8 57 42 102 70 92 13 -6 15 -17 9 -75 -6 -59 -4 -69 9 -69 12 0 17 16
22 64 9 81 1 106 -31 106 -14 0 -35 -5 -46 -11 -20 -11 -21 -10 -14 40 5 42 4
51 -8 51 -9 0 -18 -10 -20 -22z"/>
<path d="M1099 1183 c-5 -14 -17 -32 -27 -39 -15 -11 -15 -13 -1 -19 13 -5 14
-15 8 -62 -11 -79 6 -106 55 -87 23 9 20 24 -4 24 -17 0 -20 7 -20 48 0 54 7
68 34 73 27 5 26 23 -2 27 -20 3 -22 8 -17 33 8 37 -12 39 -26 2z"/>
<path d="M3844 1180 c-4 -16 -13 -30 -20 -30 -8 0 -14 -7 -14 -15 0 -8 4 -15
10 -15 5 0 7 -25 3 -63 -6 -69 8 -94 47 -82 28 9 27 35 -2 27 -20 -5 -21 -3
-15 43 4 26 7 54 7 61 0 7 10 14 22 16 28 4 36 28 9 28 -17 0 -21 6 -21 30 0
17 -5 30 -10 30 -6 0 -13 -13 -16 -30z"/>
<path d="M946 1135 c-26 -27 -19 -54 19 -77 46 -26 43 -53 -5 -54 -54 -2 -56
-4 -36 -19 28 -21 51 -19 82 8 36 31 28 70 -17 86 -21 7 -29 16 -27 28 3 14
12 17 42 16 26 -2 36 1 33 10 -6 19 -72 21 -91 2z"/>
<path d="M1206 1119 c-18 -21 -26 -42 -26 -67 0 -45 8 -58 43 -71 54 -21 107
29 107 102 0 70 -77 92 -124 36z m82 -1 c29 -29 2 -118 -37 -118 -38 0 -53 48
-30 93 20 37 45 47 67 25z"/>
<path d="M1376 1133 c-2 -10 -8 -48 -12 -85 -5 -57 -4 -68 9 -68 10 0 17 15
22 48 8 57 29 92 55 92 11 0 20 7 20 15 0 23 -37 18 -54 -7 l-16 -22 0 22 c0
26 -16 29 -24 5z"/>
<path d="M1480 1143 c0 -4 9 -40 21 -82 20 -70 20 -77 5 -102 -19 -33 -20 -39
-3 -39 12 0 127 204 127 224 0 3 -6 6 -13 6 -7 0 -26 -27 -42 -61 -32 -66 -34
-65 -55 19 -7 25 -17 42 -25 42 -8 0 -15 -3 -15 -7z"/>
<path d="M1753 1135 c-30 -21 -48 -82 -34 -118 16 -41 53 -54 96 -34 35 17 52
46 18 31 -10 -4 -31 -8 -48 -8 -24 -1 -31 4 -33 21 -3 19 4 24 43 34 52 13 72
38 55 69 -13 25 -66 27 -97 5z m72 -25 c0 -13 -64 -43 -74 -34 -2 2 4 15 13
29 19 29 61 32 61 5z"/>
<path d="M1880 1143 c0 -5 4 -24 9 -43 6 -19 15 -54 21 -77 6 -26 17 -43 25
-43 8 0 32 35 55 80 45 89 45 90 27 90 -8 0 -28 -30 -45 -67 -30 -64 -31 -65
-37 -37 -20 86 -27 104 -40 104 -8 0 -15 -3 -15 -7z"/>
<path d="M2082 1143 c-21 -8 -42 -60 -42 -102 0 -32 5 -44 25 -57 27 -18 76
-12 96 12 17 21 7 25 -28 12 -37 -14 -63 -5 -63 21 0 14 8 22 28 26 67 14 98
48 72 80 -12 14 -61 19 -88 8z m63 -33 c0 -13 -64 -43 -74 -34 -2 2 4 15 13
29 19 29 61 32 61 5z"/>
<path d="M2216 1093 c-4 -32 -9 -70 -12 -85 -4 -21 -2 -28 10 -28 9 0 18 12
21 28 15 74 30 107 53 110 12 2 22 10 22 18 0 19 -19 18 -42 -3 -17 -15 -18
-15 -18 0 0 10 -6 17 -14 17 -9 0 -16 -18 -20 -57z"/>
<path d="M2343 1070 c20 -76 20 -81 4 -116 -16 -33 -16 -35 -1 -32 24 4 141
228 120 228 -9 0 -29 -26 -48 -62 l-32 -63 -15 63 c-11 46 -19 62 -32 62 -16
0 -16 -6 4 -80z"/>
<path d="M2490 1142 c0 -12 20 -124 26 -144 10 -33 31 -18 55 37 13 30 27 55
31 55 4 0 10 -25 13 -55 11 -84 33 -75 78 31 28 68 32 85 19 82 -9 -2 -27 -30
-42 -68 l-25 -65 -10 65 c-14 88 -33 91 -67 8 -28 -67 -32 -65 -43 15 -4 31
-11 47 -21 47 -8 0 -14 -4 -14 -8z"/>
<path d="M2962 1143 c-21 -8 -42 -60 -42 -102 0 -32 5 -44 25 -57 27 -18 76
-12 96 12 17 21 7 25 -28 12 -37 -14 -63 -5 -63 21 0 14 8 22 28 26 67 14 98
48 72 80 -12 14 -61 19 -88 8z m63 -33 c0 -13 -64 -43 -74 -34 -2 2 4 15 13
29 19 29 61 32 61 5z"/>
<path d="M3096 1093 c-4 -32 -9 -70 -12 -85 -4 -21 -2 -28 10 -28 9 0 18 12
21 28 15 74 30 107 53 110 12 2 22 10 22 18 0 19 -19 18 -42 -3 -17 -15 -18
-15 -18 0 0 10 -6 17 -14 17 -9 0 -16 -18 -20 -57z"/>
<path d="M3225 1126 c-50 -50 -39 -137 19 -152 25 -6 86 19 86 36 0 13 -23 13
-37 -1 -17 -17 -55 -6 -64 18 -7 20 -4 24 19 29 75 16 101 41 80 78 -14 25
-74 21 -103 -8z m80 -16 c0 -13 -64 -43 -74 -34 -2 2 4 15 13 29 19 29 61 32
61 5z"/>
<path d="M3636 1119 c-11 -55 -7 -126 8 -138 15 -13 65 1 78 22 5 8 8 6 8 -5
0 -35 28 -18 34 20 19 125 19 132 3 132 -11 0 -18 -13 -22 -37 -12 -74 -16
-83 -40 -99 -39 -25 -48 -10 -41 67 6 56 5 69 -7 69 -8 0 -17 -14 -21 -31z"/>
<path d="M4221 1126 c-31 -33 -40 -106 -16 -129 26 -26 62 -31 90 -13 29 19
34 42 8 31 -32 -14 -65 -10 -77 8 -13 20 5 37 39 37 28 0 65 28 65 49 0 46
-72 57 -109 17z m79 -16 c0 -11 -1 -20 -3 -20 -1 0 -17 -4 -35 -9 -36 -11 -44
5 -16 33 22 23 54 20 54 -4z"/>
<path d="M4366 1089 c-9 -92 -8 -109 9 -109 10 0 15 10 15 30 0 47 26 99 55
110 30 11 33 30 6 30 -11 0 -27 -10 -35 -22 l-16 -22 0 22 c0 12 -6 22 -14 22
-9 0 -15 -20 -20 -61z"/>
<path d="M4512 1143 c-21 -8 -42 -60 -42 -102 0 -32 5 -44 25 -57 27 -18 76
-12 96 12 17 21 7 25 -28 12 -37 -14 -63 -5 -63 21 0 14 8 22 28 26 67 14 98
48 72 80 -12 14 -61 19 -88 8z m63 -33 c0 -13 -64 -43 -74 -34 -2 2 4 15 13
29 19 29 61 32 61 5z"/>
</g>
</svg>
